STARTFONT 2.1
COMMENT https://github.com/pinterior/towns-font
FONT -CaptainYS-Graphics-Medium-R-Normal--8-80-75-75-C-80-JISX0201.1976-0
SIZE 8 75 75
FONTBOUNDINGBOX 8 8 0 -1
STARTPROPERTIES 19
FONTNAME_REGISTRY ""
FOUNDRY "CaptainYS"
FAMILY_NAME "Graphics"
WEIGHT_NAME "Medium"
SLANT "R"
SETWIDTH_NAME "Normal"
ADD_STYLE_NAME ""
PIXEL_SIZE 8
POINT_SIZE 80
RESOLUTION_X 75
RESOLUTION_Y 75
SPACING "C"
AVERAGE_WIDTH 80
CHARSET_REGISTRY "JISX0201.1976"
CHARSET_ENCODING "0"
DEFAULT_CHAR 32
FONT_DESCENT 1
FONT_ASCENT 7
_GBDFED_INFO "Edited with gbdfed 1.6."
ENDPROPERTIES
CHARS 95
STARTCHAR 0x0001
ENCODING 1
SWIDTH 960 0
DWIDTH 8 0
BBX 8 8 0 -1
BITMAP
E0
80
EA
2A
EE
0A
0A
00
ENDCHAR
STARTCHAR 0x0002
ENCODING 2
SWIDTH 960 0
DWIDTH 8 0
BBX 8 8 0 -1
BITMAP
E0
80
EA
2A
E4
0A
0A
00
ENDCHAR
STARTCHAR 0x0003
ENCODING 3
SWIDTH 960 0
DWIDTH 8 0
BBX 8 8 0 -1
BITMAP
E0
80
CA
8A
E4
0A
0A
00
ENDCHAR
STARTCHAR 0x0004
ENCODING 4
SWIDTH 960 0
DWIDTH 8 0
BBX 8 8 0 -1
BITMAP
E0
80
CE
84
E4
04
04
00
ENDCHAR
STARTCHAR 0x0005
ENCODING 5
SWIDTH 960 0
DWIDTH 8 0
BBX 8 8 0 -1
BITMAP
E0
80
CE
8A
EA
0C
02
00
ENDCHAR
STARTCHAR 0x0006
ENCODING 6
SWIDTH 960 0
DWIDTH 8 0
BBX 8 8 0 -1
BITMAP
40
A0
EA
AA
AC
0A
0A
00
ENDCHAR
STARTCHAR 0x0007
ENCODING 7
SWIDTH 960 0
DWIDTH 8 0
BBX 8 8 0 -1
BITMAP
C0
A0
C8
A8
C8
08
0E
00
ENDCHAR
STARTCHAR 0x0008
ENCODING 8
SWIDTH 960 0
DWIDTH 8 0
BBX 8 8 0 -1
BITMAP
C0
A0
CE
A8
CE
02
0E
00
ENDCHAR
STARTCHAR 0x0009
ENCODING 9
SWIDTH 960 0
DWIDTH 8 0
BBX 8 8 0 -1
BITMAP
A0
A0
EE
A4
A4
04
04
00
ENDCHAR
STARTCHAR 0x000a
ENCODING 10
SWIDTH 960 0
DWIDTH 8 0
BBX 8 8 0 -1
BITMAP
80
80
8E
88
EC
08
08
00
ENDCHAR
STARTCHAR 0x000b
ENCODING 11
SWIDTH 960 0
DWIDTH 8 0
BBX 8 8 0 -1
BITMAP
A0
A0
EA
AE
AA
0A
0A
00
ENDCHAR
STARTCHAR 0x000c
ENCODING 12
SWIDTH 960 0
DWIDTH 8 0
BBX 8 8 0 -1
BITMAP
E0
80
88
88
E8
08
0E
00
ENDCHAR
STARTCHAR 0x000d
ENCODING 13
SWIDTH 960 0
DWIDTH 8 0
BBX 8 8 0 -1
BITMAP
E0
80
8C
8A
EC
0A
0A
00
ENDCHAR
STARTCHAR 0x000e
ENCODING 14
SWIDTH 960 0
DWIDTH 8 0
BBX 8 8 0 -1
BITMAP
E0
80
EE
2A
EA
0A
0E
00
ENDCHAR
STARTCHAR 0x000f
ENCODING 15
SWIDTH 960 0
DWIDTH 8 0
BBX 8 8 0 -1
BITMAP
E0
80
E4
24
E4
04
04
00
ENDCHAR
STARTCHAR 0x0010
ENCODING 16
SWIDTH 960 0
DWIDTH 8 0
BBX 8 8 0 -1
BITMAP
C0
A0
AE
A8
CC
08
0E
00
ENDCHAR
STARTCHAR 0x0011
ENCODING 17
SWIDTH 960 0
DWIDTH 8 0
BBX 8 8 0 -1
BITMAP
C0
A0
AC
A4
C4
04
04
00
ENDCHAR
STARTCHAR 0x0012
ENCODING 18
SWIDTH 960 0
DWIDTH 8 0
BBX 8 8 0 -1
BITMAP
C0
A0
AE
A2
C4
08
0E
00
ENDCHAR
STARTCHAR 0x0013
ENCODING 19
SWIDTH 960 0
DWIDTH 8 0
BBX 8 8 0 -1
BITMAP
C0
A0
AE
A2
C4
02
0E
00
ENDCHAR
STARTCHAR 0x0014
ENCODING 20
SWIDTH 960 0
DWIDTH 8 0
BBX 8 8 0 -1
BITMAP
C0
A0
A8
AC
CC
0E
04
00
ENDCHAR
STARTCHAR 0x0015
ENCODING 21
SWIDTH 960 0
DWIDTH 8 0
BBX 8 8 0 -1
BITMAP
A0
E0
EA
AA
AC
0A
0A
00
ENDCHAR
STARTCHAR 0x0016
ENCODING 22
SWIDTH 960 0
DWIDTH 8 0
BBX 8 8 0 -1
BITMAP
E0
80
EA
2E
EE
0A
0A
00
ENDCHAR
STARTCHAR 0x0017
ENCODING 23
SWIDTH 960 0
DWIDTH 8 0
BBX 8 8 0 -1
BITMAP
E0
80
CC
8A
EC
0A
0C
00
ENDCHAR
STARTCHAR 0x0018
ENCODING 24
SWIDTH 960 0
DWIDTH 8 0
BBX 8 8 0 -1
BITMAP
E0
80
8A
8E
EE
0A
0A
00
ENDCHAR
STARTCHAR 0x0019
ENCODING 25
SWIDTH 960 0
DWIDTH 8 0
BBX 8 8 0 -1
BITMAP
E0
80
CA
8E
EA
0A
0A
00
ENDCHAR
STARTCHAR 0x001a
ENCODING 26
SWIDTH 960 0
DWIDTH 8 0
BBX 8 8 0 -1
BITMAP
E0
80
EC
2A
EC
0A
0C
00
ENDCHAR
STARTCHAR 0x001b
ENCODING 27
SWIDTH 960 0
DWIDTH 8 0
BBX 8 8 0 -1
BITMAP
E0
80
CE
88
E8
08
0E
00
ENDCHAR
STARTCHAR 0x001c
ENCODING 28
SWIDTH 960 0
DWIDTH 8 0
BBX 8 8 0 -1
BITMAP
00
08
04
FE
04
08
00
00
ENDCHAR
STARTCHAR 0x001d
ENCODING 29
SWIDTH 960 0
DWIDTH 8 0
BBX 8 8 0 -1
BITMAP
00
20
40
FE
40
20
00
00
ENDCHAR
STARTCHAR 0x001e
ENCODING 30
SWIDTH 960 0
DWIDTH 8 0
BBX 8 8 0 -1
BITMAP
10
38
54
10
10
10
10
00
ENDCHAR
STARTCHAR 0x001f
ENCODING 31
SWIDTH 960 0
DWIDTH 8 0
BBX 8 8 0 -1
BITMAP
10
10
10
10
54
38
10
00
ENDCHAR
STARTCHAR 0x007f
ENCODING 127
SWIDTH 960 0
DWIDTH 8 0
BBX 8 8 0 -1
BITMAP
C0
A0
A8
A8
C8
08
0E
00
ENDCHAR
STARTCHAR 0x0080
ENCODING 128
SWIDTH 960 0
DWIDTH 8 0
BBX 8 8 0 -1
BITMAP
00
00
00
00
00
00
00
FF
ENDCHAR
STARTCHAR 0x0081
ENCODING 129
SWIDTH 960 0
DWIDTH 8 0
BBX 8 8 0 -1
BITMAP
00
00
00
00
00
00
FF
FF
ENDCHAR
STARTCHAR 0x0082
ENCODING 130
SWIDTH 960 0
DWIDTH 8 0
BBX 8 8 0 -1
BITMAP
00
00
00
00
00
FF
FF
FF
ENDCHAR
STARTCHAR 0x0083
ENCODING 131
SWIDTH 960 0
DWIDTH 8 0
BBX 8 8 0 -1
BITMAP
00
00
00
00
FF
FF
FF
FF
ENDCHAR
STARTCHAR 0x0084
ENCODING 132
SWIDTH 960 0
DWIDTH 8 0
BBX 8 8 0 -1
BITMAP
00
00
00
FF
FF
FF
FF
FF
ENDCHAR
STARTCHAR 0x0085
ENCODING 133
SWIDTH 960 0
DWIDTH 8 0
BBX 8 8 0 -1
BITMAP
00
00
FF
FF
FF
FF
FF
FF
ENDCHAR
STARTCHAR 0x0086
ENCODING 134
SWIDTH 960 0
DWIDTH 8 0
BBX 8 8 0 -1
BITMAP
00
FF
FF
FF
FF
FF
FF
FF
ENDCHAR
STARTCHAR 0x0087
ENCODING 135
SWIDTH 960 0
DWIDTH 8 0
BBX 8 8 0 -1
BITMAP
FF
FF
FF
FF
FF
FF
FF
FF
ENDCHAR
STARTCHAR 0x0088
ENCODING 136
SWIDTH 960 0
DWIDTH 8 0
BBX 8 8 0 -1
BITMAP
80
80
80
80
80
80
80
80
ENDCHAR
STARTCHAR 0x0089
ENCODING 137
SWIDTH 960 0
DWIDTH 8 0
BBX 8 8 0 -1
BITMAP
C0
C0
C0
C0
C0
C0
C0
C0
ENDCHAR
STARTCHAR 0x008a
ENCODING 138
SWIDTH 960 0
DWIDTH 8 0
BBX 8 8 0 -1
BITMAP
E0
E0
E0
E0
E0
E0
E0
E0
ENDCHAR
STARTCHAR 0x008b
ENCODING 139
SWIDTH 960 0
DWIDTH 8 0
BBX 8 8 0 -1
BITMAP
F0
F0
F0
F0
F0
F0
F0
F0
ENDCHAR
STARTCHAR 0x008c
ENCODING 140
SWIDTH 960 0
DWIDTH 8 0
BBX 8 8 0 -1
BITMAP
F8
F8
F8
F8
F8
F8
F8
F8
ENDCHAR
STARTCHAR 0x008d
ENCODING 141
SWIDTH 960 0
DWIDTH 8 0
BBX 8 8 0 -1
BITMAP
FC
FC
FC
FC
FC
FC
FC
FC
ENDCHAR
STARTCHAR 0x008e
ENCODING 142
SWIDTH 960 0
DWIDTH 8 0
BBX 8 8 0 -1
BITMAP
FE
FE
FE
FE
FE
FE
FE
FE
ENDCHAR
STARTCHAR 0x008f
ENCODING 143
SWIDTH 960 0
DWIDTH 8 0
BBX 8 8 0 -1
BITMAP
10
10
10
FF
10
10
10
10
ENDCHAR
STARTCHAR 0x0090
ENCODING 144
SWIDTH 960 0
DWIDTH 8 0
BBX 8 8 0 -1
BITMAP
10
10
10
FF
00
00
00
00
ENDCHAR
STARTCHAR 0x0091
ENCODING 145
SWIDTH 960 0
DWIDTH 8 0
BBX 8 8 0 -1
BITMAP
00
00
00
FF
10
10
10
10
ENDCHAR
STARTCHAR 0x0092
ENCODING 146
SWIDTH 960 0
DWIDTH 8 0
BBX 8 8 0 -1
BITMAP
10
10
10
F0
10
10
10
10
ENDCHAR
STARTCHAR 0x0093
ENCODING 147
SWIDTH 960 0
DWIDTH 8 0
BBX 8 8 0 -1
BITMAP
10
10
10
1F
10
10
10
10
ENDCHAR
STARTCHAR 0x0094
ENCODING 148
SWIDTH 960 0
DWIDTH 8 0
BBX 8 8 0 -1
BITMAP
FF
00
00
00
00
00
00
00
ENDCHAR
STARTCHAR 0x0095
ENCODING 149
SWIDTH 960 0
DWIDTH 8 0
BBX 8 8 0 -1
BITMAP
00
00
00
FF
00
00
00
00
ENDCHAR
STARTCHAR 0x0096
ENCODING 150
SWIDTH 960 0
DWIDTH 8 0
BBX 8 8 0 -1
BITMAP
10
10
10
10
10
10
10
10
ENDCHAR
STARTCHAR 0x0097
ENCODING 151
SWIDTH 960 0
DWIDTH 8 0
BBX 8 8 0 -1
BITMAP
01
01
01
01
01
01
01
01
ENDCHAR
STARTCHAR 0x0098
ENCODING 152
SWIDTH 960 0
DWIDTH 8 0
BBX 8 8 0 -1
BITMAP
00
00
00
1F
10
10
10
10
ENDCHAR
STARTCHAR 0x0099
ENCODING 153
SWIDTH 960 0
DWIDTH 8 0
BBX 8 8 0 -1
BITMAP
00
00
00
F0
10
10
10
10
ENDCHAR
STARTCHAR 0x009a
ENCODING 154
SWIDTH 960 0
DWIDTH 8 0
BBX 8 8 0 -1
BITMAP
10
10
10
1F
00
00
00
00
ENDCHAR
STARTCHAR 0x009b
ENCODING 155
SWIDTH 960 0
DWIDTH 8 0
BBX 8 8 0 -1
BITMAP
10
10
10
F0
00
00
00
00
ENDCHAR
STARTCHAR 0x009c
ENCODING 156
SWIDTH 960 0
DWIDTH 8 0
BBX 8 8 0 -1
BITMAP
00
00
00
07
08
10
10
10
ENDCHAR
STARTCHAR 0x009d
ENCODING 157
SWIDTH 960 0
DWIDTH 8 0
BBX 8 8 0 -1
BITMAP
00
00
00
C0
20
10
10
10
ENDCHAR
STARTCHAR 0x009e
ENCODING 158
SWIDTH 960 0
DWIDTH 8 0
BBX 8 8 0 -1
BITMAP
10
10
08
07
00
00
00
00
ENDCHAR
STARTCHAR 0x009f
ENCODING 159
SWIDTH 960 0
DWIDTH 8 0
BBX 8 8 0 -1
BITMAP
10
10
20
C0
00
00
00
00
ENDCHAR
STARTCHAR 0x00e0
ENCODING 224
SWIDTH 960 0
DWIDTH 8 0
BBX 8 8 0 -1
BITMAP
00
00
FF
00
FF
00
00
00
ENDCHAR
STARTCHAR 0x00e1
ENCODING 225
SWIDTH 960 0
DWIDTH 8 0
BBX 8 8 0 -1
BITMAP
10
10
1F
10
1F
10
10
10
ENDCHAR
STARTCHAR 0x00e2
ENCODING 226
SWIDTH 960 0
DWIDTH 8 0
BBX 8 8 0 -1
BITMAP
10
10
FF
10
FF
10
10
10
ENDCHAR
STARTCHAR 0x00e3
ENCODING 227
SWIDTH 960 0
DWIDTH 8 0
BBX 8 8 0 -1
BITMAP
10
10
F0
10
F0
10
10
10
ENDCHAR
STARTCHAR 0x00e4
ENCODING 228
SWIDTH 960 0
DWIDTH 8 0
BBX 8 8 0 -1
BITMAP
01
03
07
0F
1F
3F
7F
FF
ENDCHAR
STARTCHAR 0x00e5
ENCODING 229
SWIDTH 960 0
DWIDTH 8 0
BBX 8 8 0 -1
BITMAP
80
C0
E0
F0
F8
FC
FE
FF
ENDCHAR
STARTCHAR 0x00e6
ENCODING 230
SWIDTH 960 0
DWIDTH 8 0
BBX 8 8 0 -1
BITMAP
FF
7F
3F
1F
0F
07
03
01
ENDCHAR
STARTCHAR 0x00e7
ENCODING 231
SWIDTH 960 0
DWIDTH 8 0
BBX 8 8 0 -1
BITMAP
FF
FE
FC
F8
F0
E0
C0
80
ENDCHAR
STARTCHAR 0x00e8
ENCODING 232
SWIDTH 960 0
DWIDTH 8 0
BBX 8 8 0 -1
BITMAP
10
38
7C
FE
FE
10
7C
00
ENDCHAR
STARTCHAR 0x00e9
ENCODING 233
SWIDTH 960 0
DWIDTH 8 0
BBX 8 8 0 -1
BITMAP
6C
FE
FE
FE
7C
38
10
00
ENDCHAR
STARTCHAR 0x00ea
ENCODING 234
SWIDTH 960 0
DWIDTH 8 0
BBX 8 8 0 -1
BITMAP
10
38
7C
FE
7C
38
10
00
ENDCHAR
STARTCHAR 0x00eb
ENCODING 235
SWIDTH 960 0
DWIDTH 8 0
BBX 8 8 0 -1
BITMAP
38
38
92
FE
D6
10
7C
00
ENDCHAR
STARTCHAR 0x00ec
ENCODING 236
SWIDTH 960 0
DWIDTH 8 0
BBX 8 8 0 -1
BITMAP
38
7C
FE
FE
FE
7C
38
00
ENDCHAR
STARTCHAR 0x00ed
ENCODING 237
SWIDTH 960 0
DWIDTH 8 0
BBX 8 8 0 -1
BITMAP
38
44
82
82
82
44
38
00
ENDCHAR
STARTCHAR 0x00ee
ENCODING 238
SWIDTH 960 0
DWIDTH 8 0
BBX 8 8 0 -1
BITMAP
01
02
04
08
10
20
40
80
ENDCHAR
STARTCHAR 0x00ef
ENCODING 239
SWIDTH 960 0
DWIDTH 8 0
BBX 8 8 0 -1
BITMAP
80
40
20
10
08
04
02
01
ENDCHAR
STARTCHAR 0x00f0
ENCODING 240
SWIDTH 960 0
DWIDTH 8 0
BBX 8 8 0 -1
BITMAP
81
42
24
18
18
24
42
81
ENDCHAR
STARTCHAR 0x00f1
ENCODING 241
SWIDTH 960 0
DWIDTH 8 0
BBX 8 8 0 -1
BITMAP
FE
92
92
FE
82
82
82
00
ENDCHAR
STARTCHAR 0x00f2
ENCODING 242
SWIDTH 960 0
DWIDTH 8 0
BBX 8 8 0 -1
BITMAP
40
7E
88
3E
28
FE
08
00
ENDCHAR
STARTCHAR 0x00f3
ENCODING 243
SWIDTH 960 0
DWIDTH 8 0
BBX 8 8 0 -1
BITMAP
3E
22
3E
22
3E
42
86
00
ENDCHAR
STARTCHAR 0x00f4
ENCODING 244
SWIDTH 960 0
DWIDTH 8 0
BBX 8 8 0 -1
BITMAP
FE
82
82
FE
82
82
FE
00
ENDCHAR
STARTCHAR 0x00f5
ENCODING 245
SWIDTH 960 0
DWIDTH 8 0
BBX 8 8 0 -1
BITMAP
04
1E
FE
C4
DE
04
14
00
ENDCHAR
STARTCHAR 0x00f6
ENCODING 246
SWIDTH 960 0
DWIDTH 8 0
BBX 8 8 0 -1
BITMAP
28
44
82
7C
14
24
48
00
ENDCHAR
STARTCHAR 0x00f7
ENCODING 247
SWIDTH 960 0
DWIDTH 8 0
BBX 8 8 0 -1
BITMAP
24
44
D6
E4
46
E4
48
00
ENDCHAR
STARTCHAR 0x00f8
ENCODING 248
SWIDTH 960 0
DWIDTH 8 0
BBX 8 8 0 -1
BITMAP
FE
00
00
FE
10
10
10
00
ENDCHAR
STARTCHAR 0x00f9
ENCODING 249
SWIDTH 960 0
DWIDTH 8 0
BBX 8 8 0 -1
BITMAP
10
FE
10
FE
92
92
10
00
ENDCHAR
STARTCHAR 0x00fa
ENCODING 250
SWIDTH 960 0
DWIDTH 8 0
BBX 8 8 0 -1
BITMAP
FE
80
A4
98
98
A4
FE
00
ENDCHAR
STARTCHAR 0x00fb
ENCODING 251
SWIDTH 960 0
DWIDTH 8 0
BBX 8 8 0 -1
BITMAP
F0
B0
FE
B4
F4
04
0C
00
ENDCHAR
STARTCHAR 0x00fc
ENCODING 252
SWIDTH 960 0
DWIDTH 8 0
BBX 8 8 0 -1
BITMAP
44
44
EE
44
EC
44
44
00
ENDCHAR
STARTCHAR 0x00fd
ENCODING 253
SWIDTH 960 0
DWIDTH 8 0
BBX 8 8 0 -1
BITMAP
10
10
10
10
28
44
82
00
ENDCHAR
STARTCHAR 0x00fe
ENCODING 254
SWIDTH 960 0
DWIDTH 8 0
BBX 8 8 0 -1
BITMAP
AA
55
AA
55
AA
55
AA
55
ENDCHAR
ENDFONT
